# Blender v2.80 (sub 75) OBJ File: 'speedometer.blend'
# www.blender.org
o Circle
v -0.100000 -0.000000 0.000000
v -0.098079 -0.019509 0.000000
v -0.092388 -0.038268 0.000000
v -0.083147 -0.055557 0.000000
v -0.070711 -0.070711 0.000000
v -0.055557 -0.083147 0.000000
v -0.038269 -0.092388 0.000000
v -0.019509 -0.098079 0.000000
v -0.000000 -0.100000 0.000000
v 0.019509 -0.098079 -0.000000
v 0.038268 -0.092388 -0.000000
v 0.055557 -0.083147 -0.000000
v 0.070710 -0.070711 -0.000000
v 0.083147 -0.055557 -0.000000
v 0.092388 -0.038268 -0.000000
v 0.098078 -0.019509 -0.000000
v 0.100000 -0.000000 -0.000000
v 0.098078 0.019509 -0.000000
v 0.092388 0.038268 -0.000000
v 0.083147 0.055557 -0.000000
v 0.070710 0.070711 -0.000000
v 0.055557 0.083147 -0.000000
v 0.038268 0.092388 -0.000000
v 0.019509 0.098078 -0.000000
v -0.000000 0.100000 0.000000
v -0.019509 0.098078 0.000000
v -0.038269 0.092388 0.000000
v -0.055557 0.083147 0.000000
v -0.070711 0.070710 0.000000
v -0.083147 0.055557 0.000000
v -0.092388 0.038268 0.000000
v -0.098079 0.019509 0.000000
v -0.100000 -0.000000 0.010000
v -0.098079 -0.019509 0.010000
v -0.092388 -0.038268 0.010000
v -0.083147 -0.055557 0.010000
v -0.070711 -0.070711 0.010000
v -0.055557 -0.083147 0.010000
v -0.038269 -0.092388 0.010000
v -0.019509 -0.098079 0.010000
v -0.000000 -0.100000 0.010000
v 0.019509 -0.098079 0.010000
v 0.038268 -0.092388 0.010000
v 0.055557 -0.083147 0.010000
v 0.070710 -0.070711 0.010000
v 0.083147 -0.055557 0.010000
v 0.092388 -0.038268 0.010000
v 0.098078 -0.019509 0.010000
v 0.100000 -0.000000 0.010000
v 0.098078 0.019509 0.010000
v 0.092388 0.038268 0.010000
v 0.083147 0.055557 0.010000
v 0.070710 0.070711 0.010000
v 0.055557 0.083147 0.010000
v 0.038268 0.092388 0.010000
v 0.019509 0.098078 0.010000
v -0.000000 0.100000 0.010000
v -0.019509 0.098078 0.010000
v -0.038269 0.092388 0.010000
v -0.055557 0.083147 0.010000
v -0.070711 0.070710 0.010000
v -0.083147 0.055557 0.010000
v -0.092388 0.038268 0.010000
v -0.098079 0.019509 0.010000
v -0.090000 -0.000000 0.010000
v -0.088271 -0.017558 0.010000
v -0.083149 -0.034442 0.010000
v -0.074833 -0.050001 0.010000
v -0.063640 -0.063640 0.010000
v -0.050002 -0.074832 0.010000
v -0.034442 -0.083149 0.010000
v -0.017558 -0.088271 0.010000
v -0.000000 -0.090000 0.010000
v 0.017558 -0.088271 0.010000
v 0.034441 -0.083149 0.010000
v 0.050001 -0.074832 0.010000
v 0.063639 -0.063640 0.010000
v 0.074832 -0.050001 0.010000
v 0.083149 -0.034442 0.010000
v 0.088270 -0.017558 0.010000
v 0.090000 -0.000000 0.010000
v 0.088270 0.017558 0.010000
v 0.083149 0.034441 0.010000
v 0.074832 0.050001 0.010000
v 0.063639 0.063640 0.010000
v 0.050001 0.074832 0.010000
v 0.034441 0.083149 0.010000
v 0.017558 0.088271 0.010000
v -0.000000 0.090000 0.010000
v -0.017558 0.088271 0.010000
v -0.034442 0.083149 0.010000
v -0.050002 0.074832 0.010000
v -0.063640 0.063639 0.010000
v -0.074833 0.050001 0.010000
v -0.083149 0.034441 0.010000
v -0.088271 0.017558 0.010000
v -0.090000 -0.000000 0.000000
v -0.088271 -0.017558 0.000000
v -0.083149 -0.034442 0.000000
v -0.074833 -0.050001 0.000000
v -0.063640 -0.063640 0.000000
v -0.050002 -0.074832 0.000000
v -0.034442 -0.083149 0.000000
v -0.017558 -0.088271 0.000000
v -0.000000 -0.090000 0.000000
v 0.017558 -0.088271 -0.000000
v 0.034441 -0.083149 -0.000000
v 0.050001 -0.074832 -0.000000
v 0.063639 -0.063640 -0.000000
v 0.074832 -0.050001 -0.000000
v 0.083149 -0.034442 -0.000000
v 0.088270 -0.017558 -0.000000
v 0.090000 -0.000000 -0.000000
v 0.088270 0.017558 -0.000000
v 0.083149 0.034441 -0.000000
v 0.074832 0.050001 -0.000000
v 0.063639 0.063640 -0.000000
v 0.050001 0.074832 -0.000000
v 0.034441 0.083149 -0.000000
v 0.017558 0.088271 -0.000000
v -0.000000 0.090000 0.000000
v -0.017558 0.088271 0.000000
v -0.034442 0.083149 0.000000
v -0.050002 0.074832 0.000000
v -0.063640 0.063639 0.000000
v -0.074833 0.050001 0.000000
v -0.083149 0.034441 0.000000
v -0.088271 0.017558 0.000000
v -0.009000 -0.000000 0.000000
v -0.008827 -0.001756 0.000000
v -0.008315 -0.003444 0.000000
v -0.007484 -0.005000 0.000000
v -0.006364 -0.006364 0.000000
v -0.005000 -0.007483 0.000000
v -0.003444 -0.008315 0.000000
v -0.001756 -0.008827 0.000000
v -0.000000 -0.009000 0.000000
v 0.001756 -0.008827 -0.000000
v 0.003444 -0.008315 -0.000000
v 0.005000 -0.007483 -0.000000
v 0.006364 -0.006364 -0.000000
v 0.007483 -0.005000 -0.000000
v 0.008315 -0.003444 -0.000000
v 0.008827 -0.001756 -0.000000
v 0.009000 -0.000000 -0.000000
v 0.008827 0.001756 -0.000000
v 0.008315 0.003444 -0.000000
v 0.007483 0.005000 -0.000000
v 0.006364 0.006364 -0.000000
v 0.005000 0.007483 -0.000000
v 0.003444 0.008315 -0.000000
v 0.001756 0.008827 -0.000000
v -0.000000 0.009000 0.000000
v -0.001756 0.008827 0.000000
v -0.003444 0.008315 0.000000
v -0.005000 0.007483 0.000000
v -0.006364 0.006364 0.000000
v -0.007484 0.005000 0.000000
v -0.008315 0.003444 0.000000
v -0.008827 0.001756 0.000000
v -0.009000 -0.000000 0.010000
v -0.008827 -0.001756 0.010000
v -0.008315 -0.003444 0.010000
v -0.007484 -0.005000 0.010000
v -0.006364 -0.006364 0.010000
v -0.005000 -0.007483 0.010000
v -0.003444 -0.008315 0.010000
v -0.001756 -0.008827 0.010000
v -0.000000 -0.009000 0.010000
v 0.001756 -0.008827 0.010000
v 0.003444 -0.008315 0.010000
v 0.005000 -0.007483 0.010000
v 0.006364 -0.006364 0.010000
v 0.007483 -0.005000 0.010000
v 0.008315 -0.003444 0.010000
v 0.008827 -0.001756 0.010000
v 0.009000 -0.000000 0.010000
v 0.008827 0.001756 0.010000
v 0.008315 0.003444 0.010000
v 0.007483 0.005000 0.010000
v 0.006364 0.006364 0.010000
v 0.005000 0.007483 0.010000
v 0.003444 0.008315 0.010000
v 0.001756 0.008827 0.010000
v -0.000000 0.009000 0.010000
v -0.001756 0.008827 0.010000
v -0.003444 0.008315 0.010000
v -0.005000 0.007483 0.010000
v -0.006364 0.006364 0.010000
v -0.007484 0.005000 0.010000
v -0.008315 0.003444 0.010000
v -0.008827 0.001756 0.010000
vt 0.305851 0.036839
vt 0.324156 0.081462
vt 0.246334 0.123879
vt 0.219766 0.083444
vt 0.855559 0.853538
vt 0.821617 0.819077
vt 0.878425 0.750741
vt 0.918378 0.777988
vt 0.399608 0.007610
vt 0.408936 0.055068
vt 0.780243 0.916067
vt 0.753569 0.875870
vt 0.497588 -0.002817
vt 0.497463 0.045695
vt 0.693972 0.963080
vt 0.675542 0.918329
vt 0.596021 0.006187
vt 0.586330 0.053842
vt 0.599839 0.992487
vt 0.590477 0.944827
vt 0.691007 0.034614
vt 0.672028 0.079199
vt 0.501394 1.002911
vt 0.501604 0.954183
vt 0.777472 0.081613
vt 0.750235 0.121668
vt 0.402434 0.993551
vt 0.412416 0.945973
vt 0.853545 0.143412
vt 0.819259 0.177430
vt 0.308078 0.964136
vt 0.327169 0.919390
vt 0.916491 0.218995
vt 0.876122 0.245787
vt 0.221051 0.917741
vt 0.248352 0.877919
vt 0.963638 0.305758
vt 0.918659 0.324157
vt 0.007161 0.403967
vt 0.054515 0.413476
vt 0.046499 0.501775
vt -0.001643 0.501630
vt 0.145654 0.854918
vt 0.180169 0.821042
vt 0.992771 0.400484
vt 0.945165 0.409471
vt 0.034938 0.309553
vt 0.079667 0.328191
vt 0.083161 0.779444
vt 0.123477 0.752856
vt 1.001742 0.498492
vt 0.953292 0.498093
vt 0.080837 0.222127
vt 0.121126 0.249272
vt 0.036370 0.692730
vt 0.081083 0.674720
vt 0.992610 0.596134
vt 0.945245 0.586495
vt 0.143357 0.145302
vt 0.177264 0.179849
vt 0.008507 0.598783
vt 0.055902 0.589726
vt 0.964645 0.690565
vt 0.919932 0.671803
vt 0.876637 0.341808
vt 0.838534 0.271234
vt 0.098966 0.421975
vt 0.091559 0.501494
vt 0.211636 0.789471
vt 0.273858 0.839757
vt 0.899967 0.418576
vt 0.121730 0.345257
vt 0.161038 0.727613
vt 0.908637 0.498255
vt 0.159150 0.274365
vt 0.123452 0.657074
vt 0.900842 0.577883
vt 0.209937 0.212323
vt 0.099496 0.580869
vt 0.877831 0.654588
vt 0.271275 0.160848
vt 0.840082 0.725266
vt 0.341684 0.123058
vt 0.789954 0.787685
vt 0.418092 0.099449
vt 0.728255 0.838485
vt 0.497775 0.091137
vt 0.657889 0.876561
vt 0.577671 0.098618
vt 0.581298 0.900268
vt 0.654494 0.121850
vt 0.501382 0.908498
vt 0.725579 0.158887
vt 0.421374 0.900605
vt 0.787475 0.209564
vt 0.344319 0.877907
vt 0.858505 0.569417
vt 0.865298 0.498265
vt 0.240411 0.242755
vt 0.195131 0.298384
vt 0.141862 0.572418
vt 0.163146 0.640681
vt 0.837913 0.638007
vt 0.295368 0.196814
vt 0.134606 0.501478
vt 0.804289 0.701348
vt 0.358202 0.162882
vt 0.759318 0.757102
vt 0.426562 0.141783
vt 0.704283 0.802634
vt 0.497817 0.134390
vt 0.641318 0.836665
vt 0.569226 0.141092
vt 0.572825 0.857810
vt 0.638007 0.161684
vt 0.501414 0.865128
vt 0.701528 0.194936
vt 0.429863 0.858245
vt 0.756948 0.240079
vt 0.361028 0.837815
vt 0.802594 0.295252
vt 0.297871 0.804053
vt 0.836636 0.358357
vt 0.141268 0.430332
vt 0.242298 0.758932
vt 0.857691 0.426981
vt 0.161668 0.361740
vt 0.196958 0.703758
vt 0.526269 0.526192
vt 0.530925 0.520501
vt 0.492401 0.462954
vt 0.485371 0.465105
vt 0.520592 0.530869
vt 0.499715 0.462215
vt 0.514114 0.534348
vt 0.507033 0.462919
vt 0.507081 0.536495
vt 0.514070 0.465040
vt 0.499765 0.537226
vt 0.520556 0.468495
vt 0.492448 0.536513
vt 0.526243 0.473151
vt 0.485414 0.534386
vt 0.530910 0.478828
vt 0.478930 0.530927
vt 0.534378 0.485307
vt 0.462975 0.492464
vt 0.462262 0.499776
vt 0.473247 0.526269
vt 0.536513 0.492340
vt 0.465101 0.485430
vt 0.468583 0.520591
vt 0.537233 0.499656
vt 0.468559 0.478944
vt 0.465118 0.514115
vt 0.536513 0.506973
vt 0.473216 0.473255
vt 0.462984 0.507087
vt 0.534383 0.514010
vt 0.478893 0.468584
vt 0.502024 0.510127
vt 0.503993 0.509471
vt 0.503633 0.489787
vt 0.501632 0.489223
vt 0.499963 0.510373
vt 0.505494 0.490704
vt 0.497889 0.510203
vt 0.507131 0.491972
vt 0.495886 0.509617
vt 0.508478 0.493541
vt 0.494015 0.508702
vt 0.509483 0.495349
vt 0.489289 0.497941
vt 0.489110 0.500019
vt 0.492370 0.507432
vt 0.510127 0.497327
vt 0.489880 0.495937
vt 0.491013 0.505862
vt 0.510361 0.499396
vt 0.490803 0.494064
vt 0.490001 0.504051
vt 0.510175 0.501478
vt 0.492084 0.492412
vt 0.489351 0.502081
vt 0.509573 0.503493
vt 0.493674 0.491046
vt 0.508650 0.505390
vt 0.495517 0.490019
vt 0.507367 0.507059
vt 0.497494 0.489339
vt 0.505801 0.508437
vt 0.499560 0.489072
vn -0.4714 -0.8819 0.0000
vn 0.7730 0.6344 0.0000
vn -0.2903 -0.9569 0.0000
vn 0.6344 0.7730 0.0000
vn -0.0980 -0.9952 0.0000
vn 0.4714 0.8819 0.0000
vn 0.0980 -0.9952 -0.0000
vn 0.2903 0.9569 0.0000
vn 0.2903 -0.9569 0.0000
vn 0.0980 0.9952 0.0000
vn 0.4714 -0.8819 0.0000
vn -0.0980 0.9952 0.0000
vn 0.6344 -0.7730 0.0000
vn -0.2903 0.9569 0.0000
vn 0.7730 -0.6344 0.0000
vn -0.4714 0.8819 0.0000
vn 0.8819 -0.4714 0.0000
vn -0.9952 -0.0980 0.0000
vn -0.6344 0.7730 0.0000
vn 0.9569 -0.2903 0.0000
vn -0.9569 -0.2903 0.0000
vn -0.7730 0.6344 0.0000
vn 0.9952 -0.0980 0.0000
vn -0.8819 -0.4714 0.0000
vn -0.8819 0.4714 0.0000
vn 0.9952 0.0980 0.0000
vn -0.7730 -0.6344 0.0000
vn -0.9569 0.2903 0.0000
vn 0.9569 0.2903 0.0000
vn -0.6344 -0.7730 0.0000
vn -0.9952 0.0980 0.0000
vn 0.8819 0.4714 0.0000
vn 0.0000 0.0000 1.0000
s off
f 7/1/1 39/2/1 38/3/1 6/4/1
f 21/5/2 53/6/2 52/7/2 20/8/2
f 8/9/3 40/10/3 39/2/3 7/1/3
f 22/11/4 54/12/4 53/6/4 21/5/4
f 9/13/5 41/14/5 40/10/5 8/9/5
f 23/15/6 55/16/6 54/12/6 22/11/6
f 10/17/7 42/18/7 41/14/7 9/13/7
f 24/19/8 56/20/8 55/16/8 23/15/8
f 11/21/9 43/22/9 42/18/9 10/17/9
f 25/23/10 57/24/10 56/20/10 24/19/10
f 12/25/11 44/26/11 43/22/11 11/21/11
f 26/27/12 58/28/12 57/24/12 25/23/12
f 13/29/13 45/30/13 44/26/13 12/25/13
f 27/31/14 59/32/14 58/28/14 26/27/14
f 14/33/15 46/34/15 45/30/15 13/29/15
f 28/35/16 60/36/16 59/32/16 27/31/16
f 15/37/17 47/38/17 46/34/17 14/33/17
f 2/39/18 34/40/18 33/41/18 1/42/18
f 29/43/19 61/44/19 60/36/19 28/35/19
f 16/45/20 48/46/20 47/38/20 15/37/20
f 3/47/21 35/48/21 34/40/21 2/39/21
f 30/49/22 62/50/22 61/44/22 29/43/22
f 17/51/23 49/52/23 48/46/23 16/45/23
f 4/53/24 36/54/24 35/48/24 3/47/24
f 31/55/25 63/56/25 62/50/25 30/49/25
f 18/57/26 50/58/26 49/52/26 17/51/26
f 5/59/27 37/60/27 36/54/27 4/53/27
f 32/61/28 64/62/28 63/56/28 31/55/28
f 19/63/29 51/64/29 50/58/29 18/57/29
f 6/4/30 38/3/30 37/60/30 5/59/30
f 1/42/31 33/41/31 64/62/31 32/61/31
f 20/8/32 52/7/32 51/64/32 19/63/32
f 47/38/33 79/65/33 78/66/33 46/34/33
f 34/40/33 66/67/33 65/68/33 33/41/33
f 61/44/33 93/69/33 92/70/33 60/36/33
f 48/46/33 80/71/33 79/65/33 47/38/33
f 35/48/33 67/72/33 66/67/33 34/40/33
f 62/50/33 94/73/33 93/69/33 61/44/33
f 49/52/33 81/74/33 80/71/33 48/46/33
f 36/54/33 68/75/33 67/72/33 35/48/33
f 63/56/33 95/76/33 94/73/33 62/50/33
f 50/58/33 82/77/33 81/74/33 49/52/33
f 37/60/33 69/78/33 68/75/33 36/54/33
f 64/62/33 96/79/33 95/76/33 63/56/33
f 51/64/33 83/80/33 82/77/33 50/58/33
f 38/3/33 70/81/33 69/78/33 37/60/33
f 33/41/33 65/68/33 96/79/33 64/62/33
f 52/7/33 84/82/33 83/80/33 51/64/33
f 39/2/33 71/83/33 70/81/33 38/3/33
f 53/6/33 85/84/33 84/82/33 52/7/33
f 40/10/33 72/85/33 71/83/33 39/2/33
f 54/12/33 86/86/33 85/84/33 53/6/33
f 41/14/33 73/87/33 72/85/33 40/10/33
f 55/16/33 87/88/33 86/86/33 54/12/33
f 42/18/33 74/89/33 73/87/33 41/14/33
f 56/20/33 88/90/33 87/88/33 55/16/33
f 43/22/33 75/91/33 74/89/33 42/18/33
f 57/24/33 89/92/33 88/90/33 56/20/33
f 44/26/33 76/93/33 75/91/33 43/22/33
f 58/28/33 90/94/33 89/92/33 57/24/33
f 45/30/33 77/95/33 76/93/33 44/26/33
f 59/32/33 91/96/33 90/94/33 58/28/33
f 46/34/33 78/66/33 77/95/33 45/30/33
f 60/36/33 92/70/33 91/96/33 59/32/33
f 82/77/18 114/97/18 113/98/18 81/74/18
f 69/78/2 101/99/2 100/100/2 68/75/2
f 96/79/20 128/101/20 127/102/20 95/76/20
f 83/80/21 115/103/21 114/97/21 82/77/21
f 70/81/4 102/104/4 101/99/4 69/78/4
f 65/68/23 97/105/23 128/101/23 96/79/23
f 84/82/24 116/106/24 115/103/24 83/80/24
f 71/83/6 103/107/6 102/104/6 70/81/6
f 85/84/27 117/108/27 116/106/27 84/82/27
f 72/85/8 104/109/8 103/107/8 71/83/8
f 86/86/30 118/110/30 117/108/30 85/84/30
f 73/87/10 105/111/10 104/109/10 72/85/10
f 87/88/1 119/112/1 118/110/1 86/86/1
f 74/89/12 106/113/12 105/111/12 73/87/12
f 88/90/3 120/114/3 119/112/3 87/88/3
f 75/91/14 107/115/14 106/113/14 74/89/14
f 89/92/5 121/116/5 120/114/5 88/90/5
f 76/93/16 108/117/16 107/115/16 75/91/16
f 90/94/7 122/118/7 121/116/7 89/92/7
f 77/95/19 109/119/19 108/117/19 76/93/19
f 91/96/9 123/120/9 122/118/9 90/94/9
f 78/66/22 110/121/22 109/119/22 77/95/22
f 92/70/11 124/122/11 123/120/11 91/96/11
f 79/65/25 111/123/25 110/121/25 78/66/25
f 66/67/26 98/124/26 97/105/26 65/68/26
f 93/69/13 125/125/13 124/122/13 92/70/13
f 80/71/28 112/126/28 111/123/28 79/65/28
f 67/72/29 99/127/29 98/124/29 66/67/29
f 94/73/15 126/128/15 125/125/15 93/69/15
f 81/74/31 113/98/31 112/126/31 80/71/31
f 68/75/32 100/100/32 99/127/32 67/72/32
f 95/76/17 127/102/17 126/128/17 94/73/17
f 117/108/33 149/129/33 148/130/33 116/106/33
f 104/109/33 136/131/33 135/132/33 103/107/33
f 118/110/33 150/133/33 149/129/33 117/108/33
f 105/111/33 137/134/33 136/131/33 104/109/33
f 119/112/33 151/135/33 150/133/33 118/110/33
f 106/113/33 138/136/33 137/134/33 105/111/33
f 120/114/33 152/137/33 151/135/33 119/112/33
f 107/115/33 139/138/33 138/136/33 106/113/33
f 121/116/33 153/139/33 152/137/33 120/114/33
f 108/117/33 140/140/33 139/138/33 107/115/33
f 122/118/33 154/141/33 153/139/33 121/116/33
f 109/119/33 141/142/33 140/140/33 108/117/33
f 123/120/33 155/143/33 154/141/33 122/118/33
f 110/121/33 142/144/33 141/142/33 109/119/33
f 124/122/33 156/145/33 155/143/33 123/120/33
f 111/123/33 143/146/33 142/144/33 110/121/33
f 98/124/33 130/147/33 129/148/33 97/105/33
f 125/125/33 157/149/33 156/145/33 124/122/33
f 112/126/33 144/150/33 143/146/33 111/123/33
f 99/127/33 131/151/33 130/147/33 98/124/33
f 126/128/33 158/152/33 157/149/33 125/125/33
f 113/98/33 145/153/33 144/150/33 112/126/33
f 100/100/33 132/154/33 131/151/33 99/127/33
f 127/102/33 159/155/33 158/152/33 126/128/33
f 114/97/33 146/156/33 145/153/33 113/98/33
f 101/99/33 133/157/33 132/154/33 100/100/33
f 128/101/33 160/158/33 159/155/33 127/102/33
f 115/103/33 147/159/33 146/156/33 114/97/33
f 102/104/33 134/160/33 133/157/33 101/99/33
f 97/105/33 129/148/33 160/158/33 128/101/33
f 116/106/33 148/130/33 147/159/33 115/103/33
f 103/107/33 135/132/33 134/160/33 102/104/33
f 152/137/8 184/161/8 183/162/8 151/135/8
f 139/138/9 171/163/9 170/164/9 138/136/9
f 153/139/10 185/165/10 184/161/10 152/137/10
f 140/140/11 172/166/11 171/163/11 139/138/11
f 154/141/12 186/167/12 185/165/12 153/139/12
f 141/142/13 173/168/13 172/166/13 140/140/13
f 155/143/14 187/169/14 186/167/14 154/141/14
f 142/144/15 174/170/15 173/168/15 141/142/15
f 156/145/16 188/171/16 187/169/16 155/143/16
f 143/146/17 175/172/17 174/170/17 142/144/17
f 130/147/18 162/173/18 161/174/18 129/148/18
f 157/149/19 189/175/19 188/171/19 156/145/19
f 144/150/20 176/176/20 175/172/20 143/146/20
f 131/151/21 163/177/21 162/173/21 130/147/21
f 158/152/22 190/178/22 189/175/22 157/149/22
f 145/153/23 177/179/23 176/176/23 144/150/23
f 132/154/24 164/180/24 163/177/24 131/151/24
f 159/155/25 191/181/25 190/178/25 158/152/25
f 146/156/26 178/182/26 177/179/26 145/153/26
f 133/157/27 165/183/27 164/180/27 132/154/27
f 160/158/28 192/184/28 191/181/28 159/155/28
f 147/159/29 179/185/29 178/182/29 146/156/29
f 134/160/30 166/186/30 165/183/30 133/157/30
f 129/148/31 161/174/31 192/184/31 160/158/31
f 148/130/32 180/187/32 179/185/32 147/159/32
f 135/132/1 167/188/1 166/186/1 134/160/1
f 149/129/2 181/189/2 180/187/2 148/130/2
f 136/131/3 168/190/3 167/188/3 135/132/3
f 150/133/4 182/191/4 181/189/4 149/129/4
f 137/134/5 169/192/5 168/190/5 136/131/5
f 151/135/6 183/162/6 182/191/6 150/133/6
f 138/136/7 170/164/7 169/192/7 137/134/7
f 162/173/33 163/177/33 164/180/33 165/183/33 166/186/33 167/188/33 168/190/33 169/192/33 170/164/33 171/163/33 172/166/33 173/168/33 174/170/33 175/172/33 176/176/33 177/179/33 178/182/33 179/185/33 180/187/33 181/189/33 182/191/33 183/162/33 184/161/33 185/165/33 186/167/33 187/169/33 188/171/33 189/175/33 190/178/33 191/181/33 192/184/33 161/174/33
